<mxfile host="app.diagrams.net" modified="2023-04-24T04:44:16.301Z" agent="Mozilla/5.0 (Windows NT 10.0; Win64; x64) AppleWebKit/537.36 (KHTML, like Gecko) Chrome/112.0.0.0 Safari/537.36 Edg/112.0.1722.46" etag="iDfpyvSHZLOkmUCufGOM" version="21.2.1" type="github">
  <diagram name="第 1 页" id="-a0wTOGv0-UH1x2DEGXw">
    <mxGraphModel dx="1034" dy="477" grid="1" gridSize="10" guides="1" tooltips="1" connect="1" arrows="1" fold="1" page="1" pageScale="1" pageWidth="827" pageHeight="1169" math="0" shadow="0">
      <root>
        <mxCell id="0" />
        <mxCell id="1" parent="0" />
        <mxCell id="UcOCNzkhxqxVKZLvBoyy-5" value="5.1 更新公告栏" style="shape=ellipse;html=1;dashed=0;whiteSpace=wrap;perimeter=ellipsePerimeter;" vertex="1" parent="1">
          <mxGeometry x="314" y="270" width="100" height="60" as="geometry" />
        </mxCell>
        <mxCell id="UcOCNzkhxqxVKZLvBoyy-9" style="rounded=0;orthogonalLoop=1;jettySize=auto;html=1;exitX=0.5;exitY=0;exitDx=0;exitDy=0;entryX=0.5;entryY=0;entryDx=0;entryDy=0;" edge="1" parent="1">
          <mxGeometry relative="1" as="geometry">
            <mxPoint x="529.5" y="270" as="targetPoint" />
            <mxPoint x="529.5" y="220" as="sourcePoint" />
          </mxGeometry>
        </mxCell>
        <mxCell id="UcOCNzkhxqxVKZLvBoyy-10" value="职位信息" style="edgeLabel;html=1;align=center;verticalAlign=middle;resizable=0;points=[];" vertex="1" connectable="0" parent="UcOCNzkhxqxVKZLvBoyy-9">
          <mxGeometry x="-0.4533" y="-1" relative="1" as="geometry">
            <mxPoint x="2" y="6" as="offset" />
          </mxGeometry>
        </mxCell>
        <mxCell id="UcOCNzkhxqxVKZLvBoyy-6" value="5.2 更新岗位推荐" style="shape=ellipse;html=1;dashed=0;whiteSpace=wrap;perimeter=ellipsePerimeter;" vertex="1" parent="1">
          <mxGeometry x="480" y="270" width="100" height="60" as="geometry" />
        </mxCell>
        <mxCell id="UcOCNzkhxqxVKZLvBoyy-8" style="edgeStyle=orthogonalEdgeStyle;rounded=0;orthogonalLoop=1;jettySize=auto;html=1;exitX=0.5;exitY=1;exitDx=0;exitDy=0;entryX=0.5;entryY=0;entryDx=0;entryDy=0;" edge="1" parent="1" source="UcOCNzkhxqxVKZLvBoyy-7" target="UcOCNzkhxqxVKZLvBoyy-5">
          <mxGeometry relative="1" as="geometry" />
        </mxCell>
        <mxCell id="UcOCNzkhxqxVKZLvBoyy-7" value="公告栏记录" style="html=1;dashed=0;whiteSpace=wrap;shape=partialRectangle;right=0;left=0;" vertex="1" parent="1">
          <mxGeometry x="314" y="200" width="100" height="30" as="geometry" />
        </mxCell>
      </root>
    </mxGraphModel>
  </diagram>
</mxfile>
